<?xml version="1.0" standalone="no"?>
<!DOCTYPE svg PUBLIC "-//W3C//DTD SVG 20010904//EN"
 "http://www.w3.org/TR/2001/REC-SVG-20010904/DTD/svg10.dtd">
<svg version="1.0" xmlns="http://www.w3.org/2000/svg"
 width="700.000000pt" height="624.000000pt" viewBox="0 0 700.000000 624.000000"
 preserveAspectRatio="xMidYMid meet">
<metadata>
Created by potrace 1.16, written by Peter Selinger 2001-2019
</metadata>
<g transform="translate(0.000000,624.000000) scale(0.100000,-0.100000)"
fill="#000000" stroke="none">
<path d="M3465 6205 c-401 -63 -740 -225 -1049 -500 -104 -92 -136 -147 -136
-230 0 -167 171 -282 319 -215 24 11 73 48 110 82 198 186 441 315 706 376 99
23 254 42 340 42 204 0 312 242 172 388 -61 64 -90 72 -244 71 -76 -1 -174 -7
-218 -14z"/>
<path d="M4332 6068 c-141 -68 -176 -255 -69 -366 102 -107 266 -99 353 16
117 153 7 372 -186 371 -35 0 -71 -8 -98 -21z"/>
<path d="M4950 5701 c-127 -39 -199 -158 -170 -282 23 -95 129 -179 227 -179
118 0 233 116 233 235 0 144 -157 266 -290 226z"/>
<path d="M2451 3198 c-137 -39 -211 -199 -150 -325 40 -83 279 -281 468 -388
273 -155 554 -238 874 -260 132 -9 187 0 245 39 129 89 135 286 12 375 -57 41
-86 48 -224 55 -358 18 -690 158 -959 405 -112 102 -175 126 -266 99z"/>
<path d="M4955 3201 c-134 -35 -209 -163 -171 -293 27 -95 104 -156 207 -165
49 -5 67 -2 113 21 141 69 179 239 78 356 -57 68 -151 101 -227 81z"/>
<path d="M4332 2799 c-107 -53 -161 -188 -117 -292 22 -53 74 -108 123 -129
47 -21 131 -26 172 -10 160 62 205 265 86 384 -68 68 -180 88 -264 47z"/>
<path d="M1395 1617 c-3 -6 -4 -199 -3 -427 l3 -415 98 -3 c78 -2 98 0 103 12
5 12 12 11 42 -7 30 -18 53 -22 122 -22 76 0 91 3 139 30 109 60 161 157 161
298 0 69 -4 91 -29 142 -34 74 -103 137 -173 161 -62 20 -175 15 -212 -10 -14
-9 -28 -16 -31 -16 -3 0 -5 55 -5 123 0 82 -4 127 -12 135 -17 17 -197 16
-203 -1z m393 -443 c28 -19 52 -65 52 -99 0 -34 -24 -80 -52 -99 -38 -27 -103
-21 -140 13 -30 27 -33 35 -33 86 0 51 3 59 33 86 37 34 102 40 140 13z"/>
<path d="M270 1391 c-92 -29 -172 -98 -214 -186 -21 -45 -26 -70 -26 -134 0
-67 4 -86 30 -139 35 -69 92 -125 159 -156 66 -30 215 -30 283 1 89 41 168
121 155 157 -7 17 -130 106 -147 106 -7 0 -32 -18 -56 -40 -51 -47 -98 -53
-151 -20 -66 40 -66 150 1 191 52 32 100 25 150 -21 24 -22 49 -40 55 -40 17
0 142 90 148 107 8 21 -41 88 -89 121 -24 16 -65 37 -91 46 -49 17 -162 20
-207 7z"/>
<path d="M2303 1381 c-73 -25 -133 -78 -173 -153 -32 -58 -35 -70 -35 -153 0
-104 18 -155 80 -223 104 -116 302 -135 448 -43 48 31 87 82 87 113 0 20 -115
97 -145 98 -11 0 -35 -16 -53 -35 -57 -60 -137 -58 -180 6 l-23 34 203 5 203
5 3 63 c2 50 -2 74 -24 123 -67 148 -231 216 -391 160z"/>
<path d="M3403 1386 c-57 -18 -109 -52 -132 -85 -32 -45 -45 -111 -31 -162 22
-81 76 -118 214 -145 48 -10 94 -23 103 -29 29 -21 4 -35 -60 -35 -50 0 -73 6
-116 30 -30 17 -62 30 -71 30 -17 0 -100 -105 -100 -126 0 -20 56 -61 117 -85
49 -20 77 -23 178 -24 107 0 125 3 165 24 25 13 53 31 64 40 58 51 75 170 33
232 -33 49 -89 76 -200 95 -54 10 -106 24 -115 31 -16 12 -16 14 2 28 27 21
90 18 156 -6 98 -36 93 -37 134 29 20 33 36 66 36 73 0 17 -49 51 -105 75 -54
23 -215 29 -272 10z"/>
<path d="M4055 1387 c-22 -8 -51 -19 -64 -26 -45 -25 -113 -95 -139 -146 -23
-43 -27 -62 -27 -140 0 -78 4 -97 27 -140 142 -272 554 -231 634 62 40 148
-34 296 -186 374 -55 28 -183 36 -245 16z m181 -231 c29 -29 34 -41 34 -81 0
-40 -5 -52 -34 -81 -26 -26 -42 -34 -70 -34 -113 0 -165 126 -84 202 24 22 40
28 75 28 38 0 50 -5 79 -34z"/>
<path d="M5906 1375 c-70 -29 -137 -91 -174 -160 -22 -43 -26 -63 -27 -140 0
-108 20 -161 87 -227 70 -71 126 -92 239 -93 90 0 100 2 165 35 69 35 134 102
134 138 0 17 -128 112 -151 112 -6 0 -31 -18 -55 -40 -49 -45 -95 -53 -145
-23 -71 42 -69 162 3 199 56 29 117 13 161 -43 10 -13 26 -23 35 -23 23 0 152
97 152 113 0 24 -43 80 -88 114 -87 66 -228 82 -336 38z"/>
<path d="M6540 1379 c-75 -30 -150 -107 -179 -184 -31 -82 -26 -197 11 -270
33 -64 89 -118 153 -147 41 -19 67 -23 145 -23 88 0 101 3 163 33 50 25 77 46
102 80 18 25 31 52 28 59 -7 18 -129 93 -151 93 -10 0 -31 -13 -46 -29 -37
-39 -78 -55 -119 -47 -34 6 -69 36 -80 68 -6 16 9 18 196 20 l202 3 3 67 c2
56 -1 75 -23 117 -60 119 -141 172 -270 178 -64 2 -91 -1 -135 -18z"/>
<path d="M3030 1369 c-19 -12 -38 -26 -42 -32 -3 -6 -8 1 -10 14 -3 24 -5 24
-103 24 l-100 0 0 -300 0 -300 105 0 105 0 5 172 c6 207 4 204 114 211 43 3
80 10 86 17 6 8 10 53 8 111 l-3 99 -65 3 c-52 2 -72 -2 -100 -19z"/>
<path d="M5513 1366 c-40 -23 -41 -23 -46 -5 -5 18 -14 20 -104 17 l-98 -3 0
-300 0 -300 94 -3 c60 -2 98 1 107 9 11 9 14 47 14 174 0 195 0 195 112 203
40 2 79 9 86 14 13 11 18 172 6 202 -10 27 -119 21 -171 -8z"/>
<path d="M665 1371 c-5 -9 141 -525 165 -578 8 -21 17 -23 75 -23 36 0 65 -2
65 -4 0 -14 -26 -74 -38 -88 -20 -24 -67 -23 -109 3 -18 12 -40 19 -47 16 -21
-8 -96 -123 -96 -146 0 -43 107 -94 200 -94 112 0 216 63 254 154 29 70 227
750 221 759 -10 16 -210 13 -224 -3 -6 -8 -34 -107 -63 -222 -35 -140 -54
-202 -59 -189 -4 11 -29 109 -56 219 l-48 200 -117 3 c-69 1 -119 -1 -123 -7z"/>
<path d="M4540 1365 c-9 -11 -11 -63 -8 -212 4 -179 6 -203 27 -248 27 -60 63
-100 114 -126 77 -40 198 -37 260 6 34 22 35 22 40 4 5 -18 13 -19 109 -17
l103 3 0 300 0 300 -105 0 -105 0 -5 -187 c-5 -178 -6 -188 -28 -211 -13 -14
-39 -28 -57 -31 -36 -7 -96 12 -111 35 -5 8 -11 100 -14 204 l-5 190 -101 3
c-81 2 -104 0 -114 -13z"/>
<path d="M3011 448 c-4 -13 -40 -109 -80 -215 -39 -105 -71 -197 -71 -202 0
-6 15 -11 33 -11 32 0 34 2 53 63 l20 62 85 3 85 3 23 -66 c21 -60 26 -65 52
-65 19 0 29 5 29 15 0 8 -34 109 -77 225 l-76 210 -34 0 c-26 0 -35 -5 -42
-22z"/>
<path d="M3370 458 c0 -7 34 -109 76 -225 l77 -213 38 0 c22 0 39 5 39 11 0 6
34 105 75 219 41 114 75 211 75 214 0 4 -16 6 -37 4 l-36 -3 -34 -100 c-18
-55 -45 -133 -59 -174 l-27 -74 -57 165 c-31 90 -60 170 -64 176 -10 16 -66
16 -66 0z"/>
<path d="M4772 453 c-39 -19 -62 -59 -62 -108 0 -51 40 -88 123 -114 104 -32
127 -47 127 -81 0 -85 -160 -90 -195 -5 -12 27 -21 35 -40 35 -20 0 -25 -5
-25 -25 0 -73 75 -135 164 -135 97 0 156 52 156 136 0 63 -33 92 -144 128 -90
28 -113 49 -101 87 8 23 43 39 86 39 41 0 66 -15 84 -50 17 -33 52 -41 62 -14
9 25 -23 82 -59 104 -41 25 -129 26 -176 3z"/>
<path d="M5450 245 l0 -225 30 0 30 0 0 225 0 225 -30 0 -30 0 0 -225z"/>
<path d="M5960 395 c0 -43 -1 -45 -30 -45 -27 0 -30 -3 -30 -30 0 -27 3 -30
30 -30 l30 0 0 -104 c0 -98 2 -106 26 -136 25 -29 30 -31 83 -28 55 3 56 4 59
35 3 31 3 31 -37 26 -63 -9 -71 4 -71 113 l0 94 56 0 c54 0 55 0 52 28 -3 25
-7 27 -55 30 l-53 3 0 45 c0 42 -1 44 -30 44 -29 0 -30 -2 -30 -45z"/>
<path d="M3795 338 c-3 -8 -4 -81 -3 -163 l3 -150 30 0 30 0 0 160 0 160 -28
3 c-16 2 -29 -2 -32 -10z"/>
<path d="M3961 336 c-13 -7 -30 -24 -37 -37 -35 -63 0 -113 96 -136 89 -20
106 -36 74 -67 -33 -34 -124 -10 -124 32 0 7 -15 12 -35 12 -39 0 -42 -8 -20
-50 25 -47 66 -70 128 -70 49 0 60 4 91 34 73 68 35 141 -81 161 -24 4 -53 15
-65 25 -19 15 -20 20 -9 34 19 23 96 22 113 -2 18 -25 34 -33 52 -26 25 10 19
33 -18 70 -30 30 -40 34 -87 34 -30 -1 -65 -7 -78 -14z"/>
<path d="M4294 340 c-27 -11 -64 -57 -64 -81 0 -28 42 -24 68 6 16 19 32 25
61 25 40 0 55 -11 63 -45 5 -20 1 -21 -57 -17 -77 5 -120 -15 -141 -65 -32
-75 23 -143 115 -143 28 0 51 3 51 8 0 4 9 13 19 19 16 10 18 9 14 -8 -5 -17
0 -19 37 -19 40 0 42 1 34 23 -4 12 -9 72 -11 134 l-4 112 -35 30 c-29 26 -43
31 -82 30 -26 0 -57 -4 -68 -9z"/>
<path d="M5142 330 c-55 -34 -74 -74 -70 -154 4 -68 4 -70 52 -112 45 -41 51
-44 107 -44 33 0 59 4 59 10 0 6 6 10 14 10 23 0 74 67 82 105 21 112 -52 205
-160 205 -33 0 -62 -7 -84 -20z m145 -55 c54 -38 50 -151 -7 -180 -74 -38
-150 5 -150 85 0 44 13 77 39 97 22 17 92 16 118 -2z"/>
<path d="M5577 344 c-4 -4 -7 -54 -7 -111 0 -112 13 -161 52 -193 29 -24 100
-26 133 -4 23 15 25 15 25 0 0 -11 9 -16 30 -16 l30 0 0 166 0 165 -27 -3 -28
-3 -5 -113 c-5 -104 -7 -115 -29 -133 -27 -22 -69 -25 -94 -7 -14 11 -17 35
-19 133 l-3 120 -25 3 c-14 2 -29 0 -33 -4z"/>
<path d="M6197 343 c-4 -3 -7 -78 -7 -165 l0 -158 30 0 30 0 0 165 0 165 -23
0 c-13 0 -27 -3 -30 -7z"/>
<path d="M6382 330 c-55 -34 -74 -74 -70 -154 4 -68 4 -70 52 -112 45 -42 51
-44 107 -44 57 0 61 2 104 44 47 48 62 90 51 154 -17 107 -151 169 -244 112z
m145 -55 c33 -23 48 -83 33 -129 -34 -105 -190 -77 -190 34 0 44 13 77 39 97
23 17 92 16 118 -2z"/>
<path d="M6680 185 l0 -165 30 0 30 0 0 109 c0 94 3 112 21 135 15 20 29 26
58 26 20 0 42 -5 49 -12 8 -8 12 -50 12 -123 0 -60 4 -116 9 -123 4 -8 19 -12
32 -10 23 3 24 7 27 93 4 127 -4 173 -38 207 -23 23 -37 28 -77 28 -27 0 -58
-7 -70 -15 -19 -13 -22 -13 -27 0 -3 8 -17 15 -31 15 l-25 0 0 -165z"/>
</g>
</svg>
