<?xml version="1.0" encoding="UTF-8" standalone="no"?>
<!DOCTYPE svg PUBLIC "-//W3C//DTD SVG 1.1//EN" "http://www.w3.org/Graphics/SVG/1.1/DTD/svg11.dtd">
<svg width="100%" height="100%" viewBox="0 0 318 107" version="1.1" xmlns="http://www.w3.org/2000/svg" xmlns:xlink="http://www.w3.org/1999/xlink" xml:space="preserve" xmlns:serif="http://www.serif.com/" style="fill-rule:evenodd;clip-rule:evenodd;stroke-linejoin:round;stroke-miterlimit:2;">
    <g transform="matrix(1,0,0,1,-32.15,-28.34)">
        <path d="M340.53,39.29L336.15,39.29L340.53,34.91L340.53,39.29ZM318.64,34.91L322.36,34.91L322.36,48.05L318.64,48.05L318.64,52.43L340.53,52.43L340.53,43.67L336.15,43.67L340.53,48.05L323.67,48.05L323.67,42.14L328.05,42.14L331.77,45.86L331.77,37.1L328.05,40.82L323.67,40.82L323.67,34.91L340.53,34.91L340.53,30.53L318.64,30.53L318.64,34.91ZM293.71,37.1C293.71,36.33 293.88,35.59 294.19,34.91L313.41,34.91L313.41,30.53L309.32,30.53C310.44,31.27 311.25,32.46 311.53,33.81L310.19,33.81C309.71,31.93 308,30.53 305.97,30.53L298.96,30.53C295.33,30.53 292.39,33.46 292.39,37.1C292.39,40.73 295.32,43.67 298.96,43.67L312.03,43.67C312.34,44.35 312.53,45.09 312.53,45.86C312.53,46.65 312.36,47.39 312.05,48.05L291.95,48.05L291.95,52.43L296.04,52.43C294.92,51.69 294.11,50.5 293.81,49.15L295.15,49.15C295.65,51.03 297.36,52.43 299.4,52.43L307.28,52.43C310.91,52.43 313.85,49.5 313.85,45.86C313.85,42.23 310.92,39.29 307.28,39.29L294.2,39.29C293.89,38.64 293.71,37.89 293.71,37.1M260.97,32.72L269.73,32.72L269.73,28.34L260.97,28.34L260.97,32.72ZM278.49,32.72L287.25,32.72L287.25,28.34L278.49,28.34L278.49,32.72ZM278.49,39.29L282.21,39.29L282.21,42.99C282.21,44.92 281.55,46.67 280.48,48.05L267.89,48.05C266.73,46.67 266.01,44.92 266.01,42.99L266.01,39.29L269.73,39.29L269.73,34.91L260.97,34.91L260.97,39.29L264.69,39.29L264.69,43.23C264.69,48.31 269.24,52.43 274.32,52.43C279.4,52.43 283.51,48.31 283.51,43.23L283.51,39.29L287.23,39.29L287.23,34.91L278.47,34.91L278.47,39.29L278.49,39.29ZM234.32,30.54L225.56,30.54L225.56,34.92L229.28,34.92L229.28,48.06L225.56,48.06L225.56,52.44L234.32,52.44L234.32,48.06L230.6,48.06L230.6,34.91L234.3,34.91L240.15,52.42L241.64,52.42L247.49,34.91L251.19,34.91L251.19,48.05L247.47,48.05L247.47,52.43L256.23,52.43L256.23,48.05L252.51,48.05L252.51,34.91L256.23,34.91L256.23,30.53L247.47,30.53L240.9,50.19L234.32,30.54ZM220.77,39.29L216.39,39.29L220.77,34.91L220.77,39.29ZM198.88,34.91L202.6,34.91L202.6,48.05L198.88,48.05L198.88,52.43L220.77,52.43L220.77,43.67L216.39,43.67L220.77,48.05L203.91,48.05L203.91,42.14L208.29,42.14L212.01,45.86L212.01,37.1L208.29,40.82L203.91,40.82L203.91,34.91L220.77,34.91L220.77,30.53L198.88,30.53L198.88,34.91ZM194.14,34.91L194.14,30.53L188.12,30.53C189.87,31.25 191.43,32.39 192.65,33.81L190.99,33.81C189,31.8 186.24,30.53 183.2,30.53C177.35,30.53 172.25,35.43 172.25,41.48C172.25,47.52 177.15,52.43 183.2,52.43C189.24,52.43 194.15,47.53 194.15,41.48C194.15,40.74 194.06,40.01 193.93,39.29L181.01,39.29L181.01,43.67L192.59,43.67C192.2,45.33 191.39,46.84 190.25,48.05L176.17,48.05C174.55,46.32 173.56,44.02 173.56,41.48C173.56,38.96 174.55,36.64 176.17,34.91L194.14,34.91ZM141.88,45.86C141.88,43.78 144.33,41.98 147.48,41.13L158.27,48.05L142.75,48.05C142.18,47.37 141.88,46.63 141.88,45.86M158.93,35.59C158.93,36.14 158.71,36.66 158.34,37.1L159.89,37.1C160.13,36.64 160.26,36.14 160.26,35.59C160.26,32.77 156.15,30.53 151.44,30.53C146.8,30.53 142.75,32.76 142.75,35.59C142.75,37.12 143.52,38.35 145.31,39.73L145.99,40.17C142.75,41.31 140.56,43.43 140.56,45.86C140.56,49.49 145.44,52.43 151.48,52.43C155.22,52.43 158.59,51.29 160.56,49.54L165.05,52.41L165.77,51.27C165.77,51.27 163.98,50.18 161.44,48.6C162.08,47.77 162.45,46.85 162.45,45.86C162.45,45.09 162.23,44.37 161.82,43.67L160.2,43.67C160.79,44.35 161.14,45.09 161.14,45.86C161.14,46.58 160.86,47.28 160.35,47.92C154.66,44.35 146.4,39.12 145.42,38.13C144.83,37.54 144.08,36.6 144.08,35.59C144.08,35 144.36,34.41 144.89,33.9L158.09,33.9C158.62,34.41 158.93,35 158.93,35.59M132.91,39.29L128.53,39.29L132.91,34.91L132.91,39.29ZM111.02,39.29L115.4,39.29L111.02,34.91L111.02,39.29ZM111.02,34.91L121.31,34.91L121.31,48.05L117.59,48.05L117.59,52.43L126.35,52.43L126.35,48.05L122.63,48.05L122.63,34.91L132.92,34.91L132.92,30.53L111.03,30.53L111.03,34.91L111.02,34.91ZM86.09,37.1C86.09,36.33 86.26,35.59 86.57,34.91L105.79,34.91L105.79,30.53L101.7,30.53C102.82,31.27 103.63,32.46 103.91,33.81L102.58,33.81C102.1,31.93 100.39,30.53 98.35,30.53L91.34,30.53C87.71,30.53 84.77,33.46 84.77,37.1C84.77,40.73 87.7,43.67 91.34,43.67L104.41,43.67C104.72,44.35 104.91,45.09 104.91,45.86C104.91,46.65 104.73,47.39 104.43,48.05L84.33,48.05L84.33,52.43L88.42,52.43C87.3,51.69 86.49,50.5 86.19,49.15L87.53,49.15C88.03,51.03 89.74,52.43 91.78,52.43L99.66,52.43C103.29,52.43 106.23,49.5 106.23,45.86C106.23,42.23 103.3,39.29 99.66,39.29L86.58,39.29C86.27,38.64 86.09,37.89 86.09,37.1M63.38,48.05L63.38,43.67L77.15,43.67C77.83,44.52 78.27,45.55 78.27,46.71C78.27,47.17 78.18,47.63 78.1,48.05L63.38,48.05ZM63.38,34.91L78.09,34.91C78.18,35.3 78.26,35.79 78.26,36.2C78.26,37.38 77.82,38.43 77.14,39.29L63.38,39.29L63.38,34.91ZM76.1,41.48C78.14,40.63 79.58,38.57 79.58,36.2C79.58,33.07 77.04,30.53 73.91,30.53L57.69,30.53L57.69,34.91L62.07,34.91L62.07,48.05L57.69,48.05L57.69,52.43L73.91,52.43C77.04,52.43 79.58,49.89 79.58,46.72C79.58,44.35 78.13,42.36 76.1,41.48M33.46,41.48C33.46,38.94 34.42,36.64 36.04,34.91L50.14,34.91C51.74,36.64 52.72,38.94 52.72,41.48C52.72,44.02 51.73,46.34 50.14,48.05L36.04,48.05C34.43,46.34 33.46,44.02 33.46,41.48M32.15,41.48C32.15,47.52 37.05,52.43 43.1,52.43C49.14,52.43 54.05,47.53 54.05,41.48C54.05,35.44 49.15,30.53 43.1,30.53C37.25,30.54 32.15,35.44 32.15,41.48" style="fill:white;fill-rule:nonzero;"/>
        <g>
            <path d="M57.08,119.79C57.08,124.28 55.97,127.9 53.76,130.65C51.54,133.4 48.53,134.77 44.73,134.77C40.8,134.77 37.72,133.43 35.51,130.74C33.29,128.06 32.19,124.44 32.19,119.88L32.19,81.32C32.19,75.95 33.2,71.85 35.23,69.01C37.26,66.17 40.17,64.75 43.98,64.75C48.22,64.75 51.39,66.15 53.48,68.96C55.57,71.77 56.62,76.04 56.62,81.78L56.62,91.05L48.85,91.05L48.85,82.06C48.85,78.75 48.6,76.26 48.1,74.57C47.6,72.89 46.42,72.04 44.54,72.04C43.1,72.04 42.07,72.55 41.45,73.58C40.83,74.61 40.43,75.91 40.28,77.46C40.12,79.02 40.05,81.2 40.05,84.01L40.05,120.51C40.05,122.63 40.47,124.3 41.31,125.52C42.15,126.74 43.32,127.35 44.82,127.35C46.32,127.35 47.44,126.76 48.19,125.57C48.94,124.39 49.31,122.7 49.31,120.52L49.31,105.45L57.08,105.45L57.08,119.79Z" style="fill:white;fill-rule:nonzero;"/>
            <path d="M82.07,65.6L91.06,134.12L83.76,134.12L81.61,115.68L72.25,115.68L70.1,134.12L62.8,134.12L71.69,65.6L82.07,65.6ZM72.99,108.84L80.76,108.84L76.92,72.24L72.99,108.84Z" style="fill:white;fill-rule:nonzero;"/>
            <path d="M110.71,65.6C119.13,65.6 123.35,70.93 123.35,81.61L123.35,88.54C123.35,92.1 122.91,94.87 122.04,96.87C121.17,98.87 119.64,100.55 117.45,101.92L125.41,134.12L117.73,134.12L110.24,103.98L106.4,103.98L106.4,134.12L98.54,134.12L98.54,65.6L110.71,65.6ZM108.47,96.76C110.4,96.76 111.84,96.48 112.78,95.92C113.72,95.36 114.37,94.38 114.75,92.97C115.13,91.56 115.31,89.4 115.31,86.46C115.31,82.34 115.17,79.38 114.89,77.57C114.61,75.76 114.05,74.54 113.2,73.92C112.36,73.3 110.97,72.98 109.03,72.98L106.41,72.98L106.41,96.75L108.47,96.75L108.47,96.76Z" style="fill:white;fill-rule:nonzero;"/>
            <path d="M157.14,120.35C157.14,124.72 156.06,128.2 153.91,130.79C151.76,133.38 148.75,134.67 144.88,134.67C140.82,134.67 137.67,133.38 135.43,130.79C133.18,128.2 132.06,124.63 132.06,120.07L132.06,79.45C132.06,74.9 133.15,71.31 135.34,68.69C137.52,66.07 140.55,64.76 144.42,64.76C148.35,64.76 151.41,66.07 153.59,68.69C155.77,71.31 156.87,75.05 156.87,79.92L156.87,93.21L149.1,93.21L149.1,79.82C149.1,77.14 148.74,75.17 148.02,73.92C147.3,72.67 146.16,72.05 144.6,72.05C141.48,72.05 139.92,74.58 139.92,79.63L139.92,118.94C139.92,121.81 140.33,123.92 141.14,125.26C141.95,126.6 143.2,127.27 144.88,127.27C146.56,127.27 147.73,126.61 148.39,125.3C149.05,123.99 149.37,121.81 149.37,118.75L149.37,106.5L143.57,106.5L143.57,99.2L157.14,99.2L157.14,120.35Z" style="fill:white;fill-rule:nonzero;"/>
            <path d="M187.93,130.46C185.75,133.27 182.69,134.67 178.76,134.67C174.64,134.67 171.49,133.25 169.31,130.41C167.12,127.57 166.03,123.59 166.03,118.48L166.03,80.76C166.03,75.77 167.11,71.85 169.26,69.01C171.41,66.17 174.55,64.75 178.67,64.75C182.79,64.75 185.91,66.14 188.03,68.92C190.15,71.7 191.21,75.61 191.21,80.67L191.21,118.48C191.21,123.66 190.11,127.65 187.93,130.46ZM182.27,73.93C181.55,72.68 180.32,72.06 178.57,72.06C176.89,72.06 175.68,72.72 174.97,74.03C174.25,75.34 173.89,77.53 173.89,80.58L173.89,118.39C173.89,121.7 174.26,124.02 175.01,125.36C175.76,126.7 177.01,127.37 178.75,127.37C180.37,127.37 181.54,126.73 182.26,125.45C182.98,124.17 183.34,122.16 183.34,119.41L183.34,80.38C183.34,77.33 182.99,75.17 182.27,73.93Z" style="fill:white;fill-rule:nonzero;"/>
            <path d="M211.24,65.6C214.67,65.6 217.35,66.16 219.29,67.28C221.22,68.4 222.63,70.24 223.5,72.8C224.37,75.36 224.81,78.92 224.81,83.47C224.81,87.09 224.61,89.9 224.2,91.89C223.79,93.89 223.2,95.37 222.42,96.34C221.64,97.31 220.53,98.2 219.1,99.01C220.85,99.95 222.2,100.98 223.17,102.1C224.14,103.22 224.84,104.81 225.28,106.87C225.72,108.93 225.94,111.8 225.94,115.48C225.94,119.41 225.72,122.64 225.28,125.17C224.84,127.7 223.77,129.82 222.05,131.54C220.33,133.26 217.7,134.11 214.14,134.11L201.13,134.11L201.13,65.6L211.24,65.6ZM212.36,95.64C213.98,95.64 215.15,95.08 215.87,93.96C216.59,92.84 216.95,91.03 216.95,88.53L216.95,81.32C216.95,78.01 216.61,75.78 215.92,74.63C215.23,73.48 213.89,72.9 211.9,72.9L209,72.9L209,95.55L212.36,95.64ZM213.2,126.81C214.95,126.81 216.15,126.23 216.8,125.08C217.46,123.93 217.78,121.79 217.78,118.67L217.78,113.05C217.78,110.24 217.62,108.12 217.31,106.69C217,105.26 216.44,104.26 215.63,103.69C214.82,103.13 213.63,102.85 212.07,102.85L208.98,102.85L208.98,126.81L213.2,126.81Z" style="fill:white;fill-rule:nonzero;"/>
            <rect x="234.83" y="65.6" width="7.86" height="68.52" style="fill:white;fill-rule:nonzero;"/>
            <path d="M261.5,65.6L261.5,93.59L271.05,65.6L278.72,65.6L268.05,96.2L279.56,134.11L271.7,134.11L261.5,100.13L261.5,134.11L253.64,134.11L253.64,65.6L261.5,65.6Z" style="fill:white;fill-rule:nonzero;"/>
            <path d="M308.67,65.6L308.67,72.9L294.44,72.9L294.44,95.36L306.7,95.36L306.7,102.47L294.44,102.47L294.44,126.81L309.7,126.81L309.7,134.11L286.58,134.11L286.58,65.6L308.67,65.6Z" style="fill:white;fill-rule:nonzero;"/>
            <path d="M323.37,117.17C323.37,120.73 323.84,123.35 324.77,125.03C325.71,126.71 327.17,127.56 329.17,127.56C332.48,127.56 334.13,124.44 334.13,118.2C334.13,115.77 333.88,113.75 333.38,112.16C332.88,110.57 332.16,109.15 331.23,107.9C330.29,106.65 328.89,105.03 327.02,103.03C324.02,99.79 321.82,97.26 320.42,95.45C319.02,93.64 317.92,91.58 317.14,89.27C316.36,86.96 315.97,84.12 315.97,80.75C315.97,75.63 317.05,71.7 319.2,68.96C321.35,66.21 324.43,64.84 328.42,64.84C332.29,64.84 335.25,66.21 337.31,68.96C339.37,71.71 340.4,75.67 340.4,80.85L340.4,88.81L333.19,88.81L333.19,83.57C333.19,79.26 332.85,76.29 332.16,74.63C331.47,72.98 330.23,72.15 328.42,72.15C326.74,72.15 325.52,72.76 324.77,73.98C324.02,75.2 323.65,77.15 323.65,79.83C323.65,82.26 323.84,84.23 324.21,85.73C324.59,87.23 325.33,88.74 326.46,90.27C327.58,91.8 329.39,93.84 331.89,96.4L333.85,98.46C336.97,101.77 339.08,104.75 340.17,107.4C341.26,110.05 341.81,113.47 341.81,117.65C341.81,122.33 340.83,126.35 338.86,129.72C336.89,133.09 333.73,134.77 329.36,134.77C320.44,134.77 315.98,128.9 315.98,117.17L315.98,109.31L323.37,109.31L323.37,117.17Z" style="fill:white;fill-rule:nonzero;"/>
        </g>
        <g>
            <path d="M57.08,119.79C57.08,124.28 55.97,127.9 53.76,130.65C51.54,133.4 48.53,134.77 44.73,134.77C40.8,134.77 37.72,133.43 35.51,130.74C33.29,128.06 32.19,124.44 32.19,119.88L32.19,81.32C32.19,75.95 33.2,71.85 35.23,69.01C37.26,66.17 40.17,64.75 43.98,64.75C48.22,64.75 51.39,66.15 53.48,68.96C55.57,71.77 56.62,76.04 56.62,81.78L56.62,91.05L48.85,91.05L48.85,82.06C48.85,78.75 48.6,76.26 48.1,74.57C47.6,72.89 46.42,72.04 44.54,72.04C43.1,72.04 42.07,72.55 41.45,73.58C40.83,74.61 40.43,75.91 40.28,77.46C40.12,79.02 40.05,81.2 40.05,84.01L40.05,120.51C40.05,122.63 40.47,124.3 41.31,125.52C42.15,126.74 43.32,127.35 44.82,127.35C46.32,127.35 47.44,126.76 48.19,125.57C48.94,124.39 49.31,122.7 49.31,120.52L49.31,105.45L57.08,105.45L57.08,119.79Z" style="fill:white;fill-rule:nonzero;"/>
            <path d="M82.07,65.6L91.06,134.12L83.76,134.12L81.61,115.68L72.25,115.68L70.1,134.12L62.8,134.12L71.69,65.6L82.07,65.6ZM72.99,108.84L80.76,108.84L76.92,72.24L72.99,108.84Z" style="fill:white;fill-rule:nonzero;"/>
            <path d="M110.71,65.6C119.13,65.6 123.35,70.93 123.35,81.61L123.35,88.54C123.35,92.1 122.91,94.87 122.04,96.87C121.17,98.87 119.64,100.55 117.45,101.92L125.41,134.12L117.73,134.12L110.24,103.98L106.4,103.98L106.4,134.12L98.54,134.12L98.54,65.6L110.71,65.6ZM108.47,96.76C110.4,96.76 111.84,96.48 112.78,95.92C113.72,95.36 114.37,94.38 114.75,92.97C115.13,91.56 115.31,89.4 115.31,86.46C115.31,82.34 115.17,79.38 114.89,77.57C114.61,75.76 114.05,74.54 113.2,73.92C112.36,73.3 110.97,72.98 109.03,72.98L106.41,72.98L106.41,96.75L108.47,96.75L108.47,96.76Z" style="fill:white;fill-rule:nonzero;"/>
            <path d="M157.14,120.35C157.14,124.72 156.06,128.2 153.91,130.79C151.76,133.38 148.75,134.67 144.88,134.67C140.82,134.67 137.67,133.38 135.43,130.79C133.18,128.2 132.06,124.63 132.06,120.07L132.06,79.45C132.06,74.9 133.15,71.31 135.34,68.69C137.52,66.07 140.55,64.76 144.42,64.76C148.35,64.76 151.41,66.07 153.59,68.69C155.77,71.31 156.87,75.05 156.87,79.92L156.87,93.21L149.1,93.21L149.1,79.82C149.1,77.14 148.74,75.17 148.02,73.92C147.3,72.67 146.16,72.05 144.6,72.05C141.48,72.05 139.92,74.58 139.92,79.63L139.92,118.94C139.92,121.81 140.33,123.92 141.14,125.26C141.95,126.6 143.2,127.27 144.88,127.27C146.56,127.27 147.73,126.61 148.39,125.3C149.05,123.99 149.37,121.81 149.37,118.75L149.37,106.5L143.57,106.5L143.57,99.2L157.14,99.2L157.14,120.35Z" style="fill:white;fill-rule:nonzero;"/>
            <path d="M187.93,130.46C185.75,133.27 182.69,134.67 178.76,134.67C174.64,134.67 171.49,133.25 169.31,130.41C167.12,127.57 166.03,123.59 166.03,118.48L166.03,80.76C166.03,75.77 167.11,71.85 169.26,69.01C171.41,66.17 174.55,64.75 178.67,64.75C182.79,64.75 185.91,66.14 188.03,68.92C190.15,71.7 191.21,75.61 191.21,80.67L191.21,118.48C191.21,123.66 190.11,127.65 187.93,130.46ZM182.27,73.93C181.55,72.68 180.32,72.06 178.57,72.06C176.89,72.06 175.68,72.72 174.97,74.03C174.25,75.34 173.89,77.53 173.89,80.58L173.89,118.39C173.89,121.7 174.26,124.02 175.01,125.36C175.76,126.7 177.01,127.37 178.75,127.37C180.37,127.37 181.54,126.73 182.26,125.45C182.98,124.17 183.34,122.16 183.34,119.41L183.34,80.38C183.34,77.33 182.99,75.17 182.27,73.93Z" style="fill:white;fill-rule:nonzero;"/>
            <path d="M211.24,65.6C214.67,65.6 217.35,66.16 219.29,67.28C221.22,68.4 222.63,70.24 223.5,72.8C224.37,75.36 224.81,78.92 224.81,83.47C224.81,87.09 224.61,89.9 224.2,91.89C223.79,93.89 223.2,95.37 222.42,96.34C221.64,97.31 220.53,98.2 219.1,99.01C220.85,99.95 222.2,100.98 223.17,102.1C224.14,103.22 224.84,104.81 225.28,106.87C225.72,108.93 225.94,111.8 225.94,115.48C225.94,119.41 225.72,122.64 225.28,125.17C224.84,127.7 223.77,129.82 222.05,131.54C220.33,133.26 217.7,134.11 214.14,134.11L201.13,134.11L201.13,65.6L211.24,65.6ZM212.36,95.64C213.98,95.64 215.15,95.08 215.87,93.96C216.59,92.84 216.95,91.03 216.95,88.53L216.95,81.32C216.95,78.01 216.61,75.78 215.92,74.63C215.23,73.48 213.89,72.9 211.9,72.9L209,72.9L209,95.55L212.36,95.64ZM213.2,126.81C214.95,126.81 216.15,126.23 216.8,125.08C217.46,123.93 217.78,121.79 217.78,118.67L217.78,113.05C217.78,110.24 217.62,108.12 217.31,106.69C217,105.26 216.43,104.26 215.62,103.69C214.81,103.13 213.62,102.85 212.06,102.85L208.97,102.85L208.97,126.81L213.2,126.81Z" style="fill:white;fill-rule:nonzero;"/>
            <rect x="234.83" y="65.6" width="7.86" height="68.52" style="fill:white;fill-rule:nonzero;"/>
            <path d="M261.5,65.6L261.5,93.59L271.05,65.6L278.72,65.6L268.05,96.2L279.56,134.11L271.7,134.11L261.5,100.13L261.5,134.11L253.64,134.11L253.64,65.6L261.5,65.6Z" style="fill:white;fill-rule:nonzero;"/>
            <path d="M308.67,65.6L308.67,72.9L294.44,72.9L294.44,95.36L306.7,95.36L306.7,102.47L294.44,102.47L294.44,126.81L309.7,126.81L309.7,134.11L286.58,134.11L286.58,65.6L308.67,65.6Z" style="fill:white;fill-rule:nonzero;"/>
            <path d="M323.37,117.17C323.37,120.73 323.84,123.35 324.77,125.03C325.71,126.71 327.17,127.56 329.17,127.56C332.48,127.56 334.13,124.44 334.13,118.2C334.13,115.77 333.88,113.75 333.38,112.16C332.88,110.57 332.16,109.15 331.23,107.9C330.29,106.65 328.89,105.03 327.02,103.03C324.02,99.79 321.83,97.26 320.42,95.45C319.02,93.64 317.92,91.58 317.14,89.27C316.36,86.96 315.97,84.12 315.97,80.75C315.97,75.63 317.05,71.7 319.2,68.96C321.35,66.21 324.43,64.84 328.42,64.84C332.29,64.84 335.25,66.21 337.31,68.96C339.37,71.71 340.4,75.67 340.4,80.85L340.4,88.81L333.19,88.81L333.19,83.57C333.19,79.26 332.85,76.29 332.16,74.63C331.47,72.98 330.22,72.15 328.42,72.15C326.73,72.15 325.52,72.76 324.77,73.98C324.02,75.2 323.65,77.15 323.65,79.83C323.65,82.26 323.84,84.23 324.21,85.73C324.58,87.23 325.33,88.74 326.46,90.27C327.58,91.8 329.39,93.84 331.89,96.4L333.86,98.46C336.98,101.77 339.09,104.75 340.18,107.4C341.27,110.05 341.82,113.47 341.82,117.65C341.82,122.33 340.84,126.35 338.87,129.72C336.9,133.09 333.74,134.77 329.37,134.77C320.45,134.77 315.99,128.9 315.99,117.17L315.99,109.31L323.38,109.31L323.38,117.17L323.37,117.17Z" style="fill:white;fill-rule:nonzero;"/>
        </g>
        <g>
            <path d="M346.43,34.75L346.61,34.75C346.71,34.75 346.78,34.76 346.82,34.79C346.86,34.82 346.88,34.86 346.88,34.93C346.88,35 346.86,35.05 346.83,35.07C346.79,35.1 346.73,35.11 346.63,35.11L345.76,35.11C345.7,35.11 345.66,35.09 345.63,35.06C345.6,35.03 345.58,34.98 345.58,34.92C345.58,34.86 345.6,34.81 345.63,34.78C345.66,34.75 345.72,34.74 345.8,34.74L346.04,34.74L346.04,32.39L345.89,32.39C345.76,32.39 345.68,32.38 345.64,32.35C345.6,32.33 345.58,32.28 345.58,32.21C345.58,32.15 345.59,32.11 345.62,32.08C345.65,32.05 345.7,32.04 345.76,32.04L346.85,32.04C347.11,32.04 347.31,32.05 347.44,32.08C347.57,32.1 347.68,32.15 347.77,32.21C347.89,32.29 347.98,32.39 348.04,32.52C348.11,32.65 348.14,32.78 348.14,32.93C348.14,33.13 348.08,33.3 347.96,33.44C347.84,33.58 347.67,33.68 347.45,33.74C347.49,33.77 347.53,33.8 347.57,33.83C347.61,33.86 347.64,33.91 347.67,33.95L348.19,34.75L348.28,34.75C348.38,34.75 348.44,34.76 348.48,34.79C348.52,34.82 348.53,34.86 348.53,34.93C348.53,34.99 348.51,35.04 348.48,35.07C348.45,35.1 348.41,35.12 348.35,35.12L348.06,35.12C347.98,35.12 347.89,35.06 347.81,34.93C347.8,34.92 347.79,34.91 347.79,34.9L347.29,34.15C347.19,34 347.1,33.9 347.04,33.85C346.97,33.81 346.89,33.78 346.78,33.78L346.44,33.78L346.44,34.75L346.43,34.75ZM346.43,32.39L346.43,33.44L346.97,33.44C347.21,33.44 347.39,33.4 347.51,33.31C347.63,33.22 347.69,33.09 347.69,32.92C347.69,32.75 347.63,32.61 347.51,32.53C347.39,32.44 347.21,32.4 346.98,32.4L346.43,32.4L346.43,32.39Z" style="fill:white;fill-rule:nonzero;"/>
            <path d="M343.83,33.63C343.83,31.92 345.22,30.53 346.93,30.53C348.64,30.53 350.03,31.92 350.03,33.63C350.03,35.34 348.64,36.73 346.93,36.73C345.22,36.74 343.83,35.35 343.83,33.63M344.23,33.63C344.23,35.12 345.44,36.33 346.94,36.34C348.43,36.34 349.64,35.13 349.65,33.63C349.65,32.14 348.44,30.93 346.94,30.92C345.44,30.93 344.23,32.14 344.23,33.63Z" style="fill:white;fill-rule:nonzero;"/>
        </g>
    </g>
</svg>
