<?xml version="1.0" encoding="utf-8"?>
<!-- Generator: Adobe Illustrator 24.2.1, SVG Export Plug-In . SVG Version: 6.00 Build 0)  -->
<svg version="1.1" id="O_x26_G_TRY_IT_x21_" xmlns="http://www.w3.org/2000/svg" xmlns:xlink="http://www.w3.org/1999/xlink"
	 x="0px" y="0px" viewBox="0 0 1000 1000" style="enable-background:new 0 0 1000 1000;" xml:space="preserve">
<style type="text/css">
	.st0{fill:#EECA00;}
	.st1{fill:#FFFFFF;}
</style>
<g id="outline">
	<path class="st0" d="M500.5,989.8c-80.4,0-160.3-20-231.2-57.7c-73.1-38.9-135.6-96.6-180.8-166.6c-35.8-55.6-59.7-116.5-71-181
		C6.6,522,7.9,458.9,21.3,396.7c13.4-62.2,38.3-120.2,73.9-172.6c36.9-54.2,83.8-99.8,139.3-135.7C313.8,37.3,405.6,10.3,500,10.2
		c81.6,0,162.6,20.7,234.3,59.8c71.7,39.1,133,95.9,177.2,164.5c35.8,55.6,59.7,116.5,71,181c10.9,62.4,9.6,125.5-3.8,187.7
		c-13.4,62.2-38.3,120.2-73.9,172.6C867.9,830,821,875.7,765.5,911.5C686.1,962.7,594.5,989.8,500.5,989.8z"/>
	<path class="st0" d="M499.9,20.2c40.2,0,80.4,5.1,119.3,15.1c38.3,9.9,75.4,24.5,110.2,43.4c34.8,19,67.2,42.2,96.3,69.1
		c29.5,27.3,55.5,58.3,77.4,92c35.1,54.4,58.5,114.1,69.5,177.3c10.7,61.1,9.4,123-3.7,183.9c-13.1,60.9-37.5,117.8-72.4,169.1
		c-36.1,53.1-82,97.8-136.5,132.9c-77.7,50.2-167.5,76.7-259.6,76.7c-78.8,0-157.1-19.6-226.5-56.5c-35.3-18.8-68.1-42-97.5-68.8
		c-30.3-27.7-57.1-59.5-79.6-94.4c-35.1-54.4-58.5-114.1-69.5-177.3c-10.7-61.1-9.4-123,3.7-183.9c13.1-60.9,37.5-117.8,72.4-169.1
		c36.1-53.1,82-97.8,136.5-132.9C317.6,46.7,407.5,20.3,499.9,20.2 M500,0.2C403.9,0.3,309.9,28,229.1,80
		C-2.8,229.6-69.5,538.9,80.1,770.9C175.7,919,336.4,999.8,500.5,999.8c92.8,0,186.6-25.8,270.4-79.9
		c231.9-149.6,298.6-458.9,149-690.8C827.8,86.5,669.7,0.3,500,0.2L500,0.2z"/>
</g>
<g id="txt">
	<g>
		<path class="st1" d="M633.6,738.2v-24.5c0-3,2.4-5.5,5.4-5.5h24.5c3,0,5.5,2.5,5.5,5.5v24.5c0,3-2.5,5.5-5.5,5.5h-24.5
			C636.1,743.7,633.6,741.2,633.6,738.2z M638.2,677.3v-119c0-3,2.4-5.5,5.4-5.5H659c3,0,5.5,2.5,5.5,5.5v119c0,3-2.5,5.5-5.5,5.5
			h-15.3C640.7,682.8,638.2,680.3,638.2,677.3z"/>
	</g>
	<g>
		<path class="st1" d="M364.7,321.3V478c0,3-2.5,5.5-5.5,5.5h-15c-3,0-5.5-2.5-5.5-5.5V321.3c0-1.6-1.1-2.7-2.7-2.7h-47.2
			c-3,0-5.5-2.5-5.5-5.5v-15c0-3,2.5-5.5,5.5-5.5h125.4c3,0,5.5,2.5,5.5,5.5v15c0,3-2.5,5.5-5.5,5.5h-46.9
			C365.8,318.6,364.7,319.7,364.7,321.3z"/>
		<path class="st1" d="M450.5,478V298.1c0-3,2.5-5.5,5.4-5.5H505c31.6,0,57.3,22.9,57.3,57.3c0,23.4-12,38.7-28.4,48.8
			c-3.5,2.2-5.7,4.1-5.7,6.5c0,1.6,0.5,3,1.4,4.6l31.6,64.3c0.6,1.1,1.1,2.5,1.1,4.4c0,2.5-1.6,4.9-5.5,4.9h-16.6
			c-3.5,0-5.5-2.2-6.5-4.4L501,410.4c-0.8-1.6-2.2-3.3-5.2-3.3h-16.6c-1.6,0-2.7,1.1-2.7,2.7V478c0,3-2.5,5.5-5.4,5.5h-15
			C453,483.5,450.5,481,450.5,478z M505,381.3c16.6,0,30.5-11.5,30.5-31.3c0-19.9-13.9-31.3-30.5-31.3h-25.9c-1.6,0-2.7,1.1-2.7,2.7
			v57.2c0,1.6,1.1,2.7,2.7,2.7H505z"/>
		<path class="st1" d="M638.3,478v-65.7l-50.7-109.9c-1.4-2.7-1.4-3.8-1.4-5.2c0-2.7,2.5-4.6,4.9-4.6h18c2.5,0,3.8,1.1,5.2,4.1
			l34.9,79.1c0.8,1.6,1.1,2.5,2.2,2.5s1.4-0.8,2.2-2.5l34.9-79.1c1.4-3,2.7-4.1,5.2-4.1h18c2.4,0,4.9,1.9,4.9,4.6
			c0,1.4,0,2.5-1.4,5.2l-50.7,109.9V478c0,3-2.5,5.5-5.5,5.5h-15.3C640.8,483.5,638.3,481,638.3,478z"/>
	</g>
	<g>
		<path class="st1" d="M514.6,581.5v156.7c0,3-2.5,5.5-5.5,5.5h-15c-3,0-5.5-2.5-5.5-5.5V581.5c0-1.6-1.1-2.7-2.7-2.7h-47.2
			c-3,0-5.5-2.5-5.5-5.5v-15c0-3,2.5-5.5,5.5-5.5h125.4c3,0,5.5,2.5,5.5,5.5v15c0,3-2.5,5.5-5.5,5.5h-46.9
			C515.7,578.8,514.6,579.8,514.6,581.5z"/>
		<path class="st1" d="M338.4,738.2V558.3c0-3,2.4-5.5,5.4-5.5h15.3c3,0,5.5,2.5,5.5,5.5v179.9c0,3-2.5,5.5-5.5,5.5h-15.3
			C340.8,743.7,338.4,741.2,338.4,738.2z"/>
	</g>
</g>
</svg>
